<mxfile host="Electron" modified="2023-12-12T14:35:06.240Z" agent="Mozilla/5.0 (Windows NT 10.0; Win64; x64) AppleWebKit/537.36 (KHTML, like Gecko) draw.io/21.6.5 Chrome/114.0.5735.243 Electron/25.3.1 Safari/537.36" etag="nF4lD8Jicwpe1YUJEKqe" version="21.6.5" type="device">
  <diagram name="Page-1" id="2X0bsdxGnMODYk_lJJuG">
    <mxGraphModel dx="1512" dy="1901" grid="1" gridSize="10" guides="1" tooltips="1" connect="1" arrows="1" fold="1" page="1" pageScale="1" pageWidth="827" pageHeight="1169" math="0" shadow="0">
      <root>
        <mxCell id="0" />
        <mxCell id="1" parent="0" />
        <mxCell id="wgLr1HzhgFohp8Ss_7-K-24" style="edgeStyle=orthogonalEdgeStyle;rounded=0;orthogonalLoop=1;jettySize=auto;html=1;exitX=1;exitY=0.5;exitDx=0;exitDy=0;entryX=0.5;entryY=1;entryDx=0;entryDy=0;endArrow=none;endFill=0;" parent="1" source="wgLr1HzhgFohp8Ss_7-K-1" target="wgLr1HzhgFohp8Ss_7-K-3" edge="1">
          <mxGeometry relative="1" as="geometry" />
        </mxCell>
        <mxCell id="wgLr1HzhgFohp8Ss_7-K-1" value="Pôle" style="rounded=1;whiteSpace=wrap;html=1;" parent="1" vertex="1">
          <mxGeometry x="40" y="320" width="80" height="40" as="geometry" />
        </mxCell>
        <mxCell id="wgLr1HzhgFohp8Ss_7-K-2" value="Salle" style="rounded=1;whiteSpace=wrap;html=1;" parent="1" vertex="1">
          <mxGeometry x="400" y="-40" width="76" height="40" as="geometry" />
        </mxCell>
        <mxCell id="wgLr1HzhgFohp8Ss_7-K-23" style="edgeStyle=orthogonalEdgeStyle;rounded=0;orthogonalLoop=1;jettySize=auto;html=1;entryX=0.5;entryY=1;entryDx=0;entryDy=0;endArrow=none;endFill=0;" parent="1" source="wgLr1HzhgFohp8Ss_7-K-3" target="wgLr1HzhgFohp8Ss_7-K-10" edge="1">
          <mxGeometry relative="1" as="geometry" />
        </mxCell>
        <mxCell id="wgLr1HzhgFohp8Ss_7-K-3" value="Professeur" style="rounded=1;whiteSpace=wrap;html=1;" parent="1" vertex="1">
          <mxGeometry x="290" y="50" width="80" height="40" as="geometry" />
        </mxCell>
        <mxCell id="wgLr1HzhgFohp8Ss_7-K-27" style="edgeStyle=orthogonalEdgeStyle;rounded=0;orthogonalLoop=1;jettySize=auto;html=1;entryX=0.5;entryY=1;entryDx=0;entryDy=0;endArrow=none;endFill=0;" parent="1" source="wgLr1HzhgFohp8Ss_7-K-4" target="wgLr1HzhgFohp8Ss_7-K-6" edge="1">
          <mxGeometry relative="1" as="geometry">
            <mxPoint x="80" y="520" as="targetPoint" />
            <Array as="points">
              <mxPoint x="671" y="520" />
              <mxPoint x="80" y="520" />
            </Array>
          </mxGeometry>
        </mxCell>
        <mxCell id="wgLr1HzhgFohp8Ss_7-K-28" style="edgeStyle=orthogonalEdgeStyle;rounded=0;orthogonalLoop=1;jettySize=auto;html=1;entryX=1;entryY=0.5;entryDx=0;entryDy=0;endArrow=none;endFill=0;" parent="1" source="wgLr1HzhgFohp8Ss_7-K-4" target="wgLr1HzhgFohp8Ss_7-K-14" edge="1">
          <mxGeometry relative="1" as="geometry" />
        </mxCell>
        <mxCell id="wgLr1HzhgFohp8Ss_7-K-31" style="edgeStyle=orthogonalEdgeStyle;rounded=0;orthogonalLoop=1;jettySize=auto;html=1;entryX=0.75;entryY=0;entryDx=0;entryDy=0;endArrow=none;endFill=0;" parent="1" source="wgLr1HzhgFohp8Ss_7-K-4" target="wgLr1HzhgFohp8Ss_7-K-10" edge="1">
          <mxGeometry relative="1" as="geometry">
            <Array as="points">
              <mxPoint x="670" y="-100" />
              <mxPoint x="180" y="-100" />
            </Array>
          </mxGeometry>
        </mxCell>
        <mxCell id="wgLr1HzhgFohp8Ss_7-K-4" value="Eleve" style="rounded=1;whiteSpace=wrap;html=1;" parent="1" vertex="1">
          <mxGeometry x="630" y="320" width="80" height="40" as="geometry" />
        </mxCell>
        <mxCell id="wgLr1HzhgFohp8Ss_7-K-21" style="edgeStyle=orthogonalEdgeStyle;rounded=0;orthogonalLoop=1;jettySize=auto;html=1;entryX=0;entryY=0.5;entryDx=0;entryDy=0;endArrow=none;endFill=0;" parent="1" source="wgLr1HzhgFohp8Ss_7-K-5" target="wgLr1HzhgFohp8Ss_7-K-6" edge="1">
          <mxGeometry relative="1" as="geometry" />
        </mxCell>
        <mxCell id="wgLr1HzhgFohp8Ss_7-K-22" style="edgeStyle=orthogonalEdgeStyle;rounded=0;orthogonalLoop=1;jettySize=auto;html=1;entryX=0;entryY=0.5;entryDx=0;entryDy=0;endArrow=none;endFill=0;" parent="1" source="wgLr1HzhgFohp8Ss_7-K-5" target="wgLr1HzhgFohp8Ss_7-K-10" edge="1">
          <mxGeometry relative="1" as="geometry" />
        </mxCell>
        <mxCell id="wgLr1HzhgFohp8Ss_7-K-5" value="Matière" style="rounded=1;whiteSpace=wrap;html=1;" parent="1" vertex="1">
          <mxGeometry x="-30" y="120" width="80" height="40" as="geometry" />
        </mxCell>
        <mxCell id="wgLr1HzhgFohp8Ss_7-K-8" style="edgeStyle=orthogonalEdgeStyle;rounded=0;orthogonalLoop=1;jettySize=auto;html=1;endArrow=none;endFill=0;entryX=0.5;entryY=1;entryDx=0;entryDy=0;" parent="1" source="wgLr1HzhgFohp8Ss_7-K-6" target="wgLr1HzhgFohp8Ss_7-K-1" edge="1">
          <mxGeometry relative="1" as="geometry">
            <mxPoint x="80" y="370" as="targetPoint" />
          </mxGeometry>
        </mxCell>
        <mxCell id="wgLr1HzhgFohp8Ss_7-K-16" style="edgeStyle=orthogonalEdgeStyle;rounded=0;orthogonalLoop=1;jettySize=auto;html=1;entryX=0.592;entryY=0.95;entryDx=0;entryDy=0;entryPerimeter=0;endArrow=none;endFill=0;" parent="1" source="wgLr1HzhgFohp8Ss_7-K-6" target="wgLr1HzhgFohp8Ss_7-K-14" edge="1">
          <mxGeometry relative="1" as="geometry">
            <Array as="points">
              <mxPoint x="438" y="460" />
              <mxPoint x="438" y="358" />
            </Array>
          </mxGeometry>
        </mxCell>
        <mxCell id="wgLr1HzhgFohp8Ss_7-K-6" value="Cursus" style="rounded=1;whiteSpace=wrap;html=1;" parent="1" vertex="1">
          <mxGeometry x="40" y="440" width="80" height="40" as="geometry" />
        </mxCell>
        <mxCell id="wgLr1HzhgFohp8Ss_7-K-13" style="edgeStyle=orthogonalEdgeStyle;rounded=0;orthogonalLoop=1;jettySize=auto;html=1;entryX=0;entryY=0.5;entryDx=0;entryDy=0;endArrow=none;endFill=0;" parent="1" source="wgLr1HzhgFohp8Ss_7-K-10" target="wgLr1HzhgFohp8Ss_7-K-2" edge="1">
          <mxGeometry relative="1" as="geometry" />
        </mxCell>
        <mxCell id="wgLr1HzhgFohp8Ss_7-K-10" value="Cours" style="rounded=1;whiteSpace=wrap;html=1;" parent="1" vertex="1">
          <mxGeometry x="120" y="-40" width="80" height="40" as="geometry" />
        </mxCell>
        <mxCell id="wgLr1HzhgFohp8Ss_7-K-17" style="edgeStyle=orthogonalEdgeStyle;rounded=0;orthogonalLoop=1;jettySize=auto;html=1;entryX=0.5;entryY=1;entryDx=0;entryDy=0;endArrow=none;endFill=0;" parent="1" source="wgLr1HzhgFohp8Ss_7-K-14" target="wgLr1HzhgFohp8Ss_7-K-2" edge="1">
          <mxGeometry relative="1" as="geometry" />
        </mxCell>
        <mxCell id="wgLr1HzhgFohp8Ss_7-K-14" value="Examen" style="rounded=1;whiteSpace=wrap;html=1;" parent="1" vertex="1">
          <mxGeometry x="400" y="320" width="76" height="40" as="geometry" />
        </mxCell>
        <mxCell id="wgLr1HzhgFohp8Ss_7-K-30" style="edgeStyle=orthogonalEdgeStyle;rounded=0;orthogonalLoop=1;jettySize=auto;html=1;dashed=1;dashPattern=12 12;endArrow=none;endFill=0;" parent="1" source="wgLr1HzhgFohp8Ss_7-K-29" edge="1">
          <mxGeometry relative="1" as="geometry">
            <mxPoint x="374" y="520" as="targetPoint" />
          </mxGeometry>
        </mxCell>
        <mxCell id="wgLr1HzhgFohp8Ss_7-K-29" value="Instrument" style="rounded=1;whiteSpace=wrap;html=1;" parent="1" vertex="1">
          <mxGeometry x="334" y="610" width="80" height="40" as="geometry" />
        </mxCell>
      </root>
    </mxGraphModel>
  </diagram>
</mxfile>
